<svg width="24" height="24" viewBox="0 0 24 24" fill="none" xmlns="http://www.w3.org/2000/svg">
<path d="M13.6483 11.9138L11.1317 11.9144V15.1024H13.6482C14.5194 15.1024 15.2283 14.3872 15.2283 13.5081C15.2283 13.0847 15.0633 12.685 14.7636 12.3827C14.464 12.0803 14.0678 11.9138 13.6483 11.9138Z" fill="#FFBB36"/>
<path d="M14.5469 9.31161C14.5469 8.97608 14.416 8.65929 14.1784 8.41952C13.9407 8.17974 13.6267 8.04768 13.2942 8.04773H11.1317V10.5751H13.3146C13.9959 10.5639 14.5469 10.0017 14.5469 9.31161Z" fill="#FFBB36"/>
<path d="M12.3064 3.896C8.10974 3.896 4.6955 7.34059 4.6955 11.5746C4.6955 15.8085 8.10974 19.2531 12.3064 19.2531C16.5031 19.2531 19.9173 15.8085 19.9173 11.5746C19.9173 7.34059 16.5031 3.896 12.3064 3.896ZM13.6486 16.4415H12.9702V17.7353H11.6427V16.4415H8.72048V15.1022H9.8045V8.04693H8.72048V6.70765H11.6427V5.41385H12.9702V6.70765H13.2945C13.9816 6.7076 14.629 6.97894 15.1174 7.47171C15.6058 7.96448 15.8747 8.61765 15.8747 9.31086C15.8747 9.97488 15.6266 10.5813 15.2196 11.0417C15.3918 11.1542 15.554 11.2853 15.7026 11.4354C16.2531 11.9908 16.5561 12.7268 16.556 13.508C16.5561 15.1255 15.2518 16.4415 13.6486 16.4415V16.4415Z" fill="#FFBB36"/>
<path d="M20.3169 3.49356C18.1773 1.33503 15.3326 0.14624 12.3068 0.14624C9.28104 0.14624 6.43637 1.33503 4.29677 3.49356C2.15726 5.65218 0.978943 8.52213 0.978943 11.5748C0.978943 14.6275 2.15726 17.4974 4.29677 19.6561C6.43637 21.8146 9.28104 23.0034 12.3068 23.0034C15.3326 23.0034 18.1773 21.8146 20.3169 19.6561C22.4564 17.4974 23.6347 14.6275 23.6347 11.5748C23.6347 8.52213 22.4564 5.65218 20.3169 3.49356V3.49356ZM12.3068 20.5927C7.37817 20.5927 3.36842 16.5473 3.36842 11.5748C3.36842 6.60236 7.37817 2.55695 12.3068 2.55695C17.2355 2.55695 21.2452 6.60236 21.2452 11.5748C21.2452 16.5473 17.2355 20.5927 12.3068 20.5927V20.5927Z" fill="#FFBB36"/>
</svg>
