<svg width="18" height="22" viewBox="0 0 18 22" fill="none" xmlns="http://www.w3.org/2000/svg">
<path d="M15.175 2.19517C14.2244 1.10874 12.504 0.643311 10.3031 0.643311H3.91585C3.46599 0.643311 3.08367 0.971168 3.01231 1.41474L0.352705 18.2975C0.300455 18.6305 0.557881 18.9313 0.894319 18.9313H4.83727L5.82747 12.6442L5.79688 12.8422C5.86697 12.3986 6.24801 12.0707 6.69787 12.0707H8.57122C12.2529 12.0707 15.1343 10.5742 15.9767 6.24517C16.0022 6.1166 16.0417 5.86974 16.0417 5.86974C16.2812 4.26774 16.0404 3.18131 15.175 2.19517Z" fill="#03A9F4"/>
<path d="M17.0404 6.69104C16.1253 10.9532 13.2057 13.2083 8.57206 13.2083H6.89242L5.63843 21.2157H8.36306C8.75685 21.2157 9.09201 20.929 9.15318 20.5395L9.18504 20.3697L9.81204 16.3956L9.85282 16.177C9.91399 15.7875 10.2492 15.5007 10.6417 15.5007H11.14C14.3603 15.5007 16.8811 14.1919 17.6177 10.4055C17.9133 8.88575 17.7706 7.61161 17.0404 6.69104Z" fill="#03A9F4"/>
</svg>
