<svg width="22" height="10" viewBox="0 0 22 10" fill="none" xmlns="http://www.w3.org/2000/svg">
<path d="M3.04687 5.39342V8.25893C3.04687 8.87798 3.11458 9.26246 3.25 9.41239C3.43378 9.62519 3.71187 9.73158 4.08426 9.73158H4.4615V10H0.246652V9.73158H0.616629C1.03255 9.73158 1.32998 9.59617 1.50893 9.32533C1.60565 9.17541 1.65402 8.81994 1.65402 8.25893V1.90402C1.65402 1.28497 1.58873 0.900484 1.45815 0.750559C1.26953 0.537761 0.989025 0.431362 0.616629 0.431362H0.246652V0.162947H3.85212C4.73233 0.162947 5.42634 0.254837 5.93415 0.438617C6.44196 0.61756 6.86998 0.922248 7.21819 1.35268C7.56641 1.78311 7.74051 2.29334 7.74051 2.88337C7.74051 3.6862 7.47452 4.3391 6.94252 4.84208C6.41536 5.34505 5.66815 5.59654 4.70089 5.59654C4.46391 5.59654 4.20759 5.57961 3.93192 5.54576C3.65625 5.51191 3.36123 5.46112 3.04687 5.39342ZM3.04687 4.97991C3.3032 5.02827 3.53051 5.06455 3.72879 5.08873C3.92708 5.11291 4.09635 5.125 4.23661 5.125C4.73958 5.125 5.17243 4.93155 5.53516 4.54464C5.90272 4.1529 6.08649 3.64751 6.08649 3.02846C6.08649 2.60287 5.99944 2.20871 5.82533 1.84598C5.65123 1.47842 5.40458 1.20517 5.08538 1.02623C4.76618 0.842449 4.40346 0.750559 3.99721 0.750559C3.75056 0.750559 3.43378 0.796504 3.04687 0.888394V4.97991ZM14.5722 10L10.7708 1.72266V8.2952C10.7708 8.89974 10.8361 9.27697 10.9667 9.4269C11.1457 9.63002 11.4286 9.73158 11.8155 9.73158H12.1637V10H8.7396V9.73158H9.08781C9.50373 9.73158 9.79875 9.60584 9.97286 9.35435C10.0793 9.19959 10.1325 8.84654 10.1325 8.2952V1.86775C10.1325 1.43248 10.0841 1.11812 9.98737 0.924666C9.91966 0.784413 9.79391 0.668342 9.61013 0.576452C9.43119 0.479726 9.14101 0.431362 8.7396 0.431362V0.162947H11.5253L15.0945 7.85993L18.6057 0.162947H21.3914V0.431362H21.0504C20.6297 0.431362 20.3322 0.557107 20.1581 0.808595C20.0517 0.963356 19.9985 1.31641 19.9985 1.86775V8.2952C19.9985 8.89974 20.0662 9.27697 20.2016 9.4269C20.3806 9.63002 20.6635 9.73158 21.0504 9.73158H21.3914V10H17.2128V9.73158H17.561C17.9818 9.73158 18.2768 9.60584 18.4461 9.35435C18.5525 9.19959 18.6057 8.84654 18.6057 8.2952V1.72266L14.8116 10H14.5722Z" fill="#DA251C"/>
</svg>
