<svg width="27" height="27" viewBox="0 0 27 27" fill="none" xmlns="http://www.w3.org/2000/svg">
<g clip-path="url(#clip0)">
<path d="M13.5068 26.9491C20.7422 26.9491 26.6077 21.0836 26.6077 13.8481C26.6077 6.6127 20.7422 0.747208 13.5068 0.747208C6.27134 0.747208 0.405853 6.6127 0.405853 13.8481C0.405853 21.0836 6.27134 26.9491 13.5068 26.9491Z" fill="#3B5998"/>
<path d="M16.798 14.3625H14.4603V22.9268H10.9185V14.3625H9.23398V11.3527H10.9185V9.405C10.9185 8.01219 11.5801 5.83119 14.4918 5.83119L17.1154 5.84217V8.76371H15.2118C14.8996 8.76371 14.4605 8.91971 14.4605 9.58413V11.3555H17.1074L16.798 14.3625Z" fill="white"/>
</g>
<defs>
<clipPath id="clip0">
<rect width="26.2019" height="26.2019" fill="white" transform="translate(0.402344 0.748047)"/>
</clipPath>
</defs>
</svg>
