<svg width="28" height="28" viewBox="0 0 28 28" fill="none" xmlns="http://www.w3.org/2000/svg">
<g clip-path="url(#clip0)">
<path d="M2.26834 2.36669C0.111264 4.60726 0.552744 6.98737 0.552744 14.2181C0.552744 20.2226 -0.494915 26.2421 4.98814 27.6592C6.70031 28.0995 21.8708 28.0995 23.5807 27.6569C25.8635 27.0679 27.721 25.2162 27.9749 21.9874C28.0103 21.5368 28.0103 6.90731 27.9737 6.44753C27.7038 3.00832 25.5868 1.02623 22.7972 0.624781C22.1579 0.532139 22.0298 0.504689 18.7495 0.498971C7.11434 0.504689 4.56382 -0.013422 2.26834 2.36669Z" fill="url(#paint0_linear)"/>
<path d="M14.272 4.09181C10.1191 4.09181 6.17552 3.72239 4.66923 7.5882C4.04703 9.18486 4.13739 11.2584 4.13739 14.2276C4.13739 16.833 4.0539 19.2817 4.66923 20.8658C6.17209 24.7339 10.1477 24.3633 14.2697 24.3633C18.2465 24.3633 22.3468 24.7774 23.8714 20.8658C24.4947 19.2531 24.4032 17.2104 24.4032 14.2276C24.4032 10.268 24.6216 7.71173 22.7013 5.79254C20.757 3.8482 18.1275 4.09181 14.2674 4.09181H14.272ZM13.3639 5.91835C22.0265 5.90463 23.1291 4.94161 22.5206 18.3199C22.3044 23.0515 18.7017 22.5322 14.2732 22.5322C6.1984 22.5322 5.96622 22.3012 5.96622 14.223C5.96622 6.05103 6.60671 5.92293 13.3639 5.91607V5.91835ZM19.6819 7.60079C19.0105 7.60079 18.4661 8.1452 18.4661 8.81657C18.4661 9.48794 19.0105 10.0324 19.6819 10.0324C20.3532 10.0324 20.8977 9.48794 20.8977 8.81657C20.8977 8.1452 20.3532 7.60079 19.6819 7.60079ZM14.272 9.02244C11.3978 9.02244 9.06802 11.3534 9.06802 14.2276C9.06802 17.1018 11.3978 19.4316 14.272 19.4316C17.1462 19.4316 19.4748 17.1018 19.4748 14.2276C19.4748 11.3534 17.1462 9.02244 14.272 9.02244ZM14.272 10.849C18.7383 10.849 18.744 17.6062 14.272 17.6062C9.80687 17.6062 9.80001 10.849 14.272 10.849Z" fill="white"/>
</g>
<defs>
<linearGradient id="paint0_linear" x1="2.32098" y1="26.1953" x2="27.8325" y2="4.11544" gradientUnits="userSpaceOnUse">
<stop stop-color="#FFDD55"/>
<stop offset="0.5" stop-color="#FF543E"/>
<stop offset="1" stop-color="#C837AB"/>
</linearGradient>
<clipPath id="clip0">
<rect width="27.4496" height="27.4496" fill="white" transform="translate(0.550781 0.5)"/>
</clipPath>
</defs>
</svg>
