<svg width="27" height="27" viewBox="0 0 27 27" fill="none" xmlns="http://www.w3.org/2000/svg">
<g clip-path="url(#clip0)">
<path d="M13.1009 26.9497C20.3364 26.9497 26.2019 21.0842 26.2019 13.8488C26.2019 6.61334 20.3364 0.747849 13.1009 0.747849C5.86549 0.747849 0 6.61334 0 13.8488C0 21.0842 5.86549 26.9497 13.1009 26.9497Z" fill="#4D76A1"/>
<path fill-rule="evenodd" clip-rule="evenodd" d="M12.6084 19.5951H13.6367C13.6367 19.5951 13.9473 19.561 14.1058 19.3901C14.2518 19.2332 14.2471 18.9384 14.2471 18.9384C14.2471 18.9384 14.227 17.5587 14.8674 17.3555C15.4986 17.1554 16.3093 18.689 17.1684 19.2787C17.8181 19.725 18.3118 19.6271 18.3118 19.6271L20.6091 19.5951C20.6091 19.5951 21.8109 19.5211 21.2411 18.5762C21.1944 18.4989 20.9092 17.8772 19.533 16.5998C18.0925 15.2628 18.2854 15.4791 20.0206 13.1663C21.0774 11.7579 21.4998 10.898 21.3679 10.5297C21.242 10.1789 20.4648 10.2717 20.4648 10.2717L17.8782 10.2878C17.8782 10.2878 17.6864 10.2616 17.5442 10.3466C17.4052 10.43 17.3158 10.6243 17.3158 10.6243C17.3158 10.6243 16.9064 11.7142 16.3604 12.6411C15.2086 14.597 14.7481 14.7002 14.5598 14.5788C14.122 14.2957 14.2312 13.4417 14.2312 12.835C14.2312 10.9396 14.5187 10.1493 13.6715 9.9447C13.3903 9.87674 13.1834 9.8319 12.4643 9.82466C11.5414 9.81509 10.7602 9.82747 10.3179 10.0442C10.0236 10.1883 9.79662 10.5094 9.93487 10.5278C10.1058 10.5507 10.493 10.6322 10.6983 10.9118C10.9634 11.2724 10.954 12.0823 10.954 12.0823C10.954 12.0823 11.1063 14.3135 10.5984 14.5907C10.2497 14.7808 9.7714 14.3926 8.74454 12.6182C8.21838 11.7093 7.82113 10.7046 7.82113 10.7046C7.82113 10.7046 7.74453 10.5169 7.60791 10.4164C7.4421 10.2948 7.21043 10.256 7.21043 10.256L4.75246 10.2721C4.75246 10.2721 4.38347 10.2824 4.24802 10.4428C4.12752 10.5855 4.23845 10.8807 4.23845 10.8807C4.23845 10.8807 6.16279 15.3828 8.34169 17.6516C10.3396 19.7318 12.6084 19.5951 12.6084 19.5951Z" fill="white"/>
</g>
<defs>
<clipPath id="clip0">
<rect width="26.2019" height="26.2019" fill="white" transform="translate(0 0.747849)"/>
</clipPath>
</defs>
</svg>
